<?xml version="1.0" encoding="UTF-8"?>
<svg width="2.8417mm" height="4.7563mm" version="1.1" viewBox="0 0 2.8417 4.7563" xmlns="http://www.w3.org/2000/svg">
 <g fill="#1a1a1a" stroke-linecap="round" stroke-linejoin="round">
  <path d="m0.5 0.5h1.8417v3.7563h-1.8417z" stop-color="#000000"/>
  <path d="m0.5 0a0.50005 0.50005 0 0 0-0.5 0.5v3.7559a0.50005 0.50005 0 0 0 0.5 0.5h1.8418a0.50005 0.50005 0 0 0 0.5-0.5v-3.7559a0.50005 0.50005 0 0 0-0.5-0.5zm0.5 1h0.8418v2.7559h-0.8418z" stop-color="#000000"/>
 </g>
 <g transform="translate(-91.828 -113.14)" stroke-width=".36635">
  <path d="m94.238 117.22q0 0.10518-0.06869 0.17173-0.06654 0.0665-0.17173 0.0665h-0.9402q-0.10518 0-0.17173-0.0665-0.06654-0.0665-0.06654-0.17173v-2.8828q0-0.10519 0.06654-0.17173 0.06654-0.0665 0.17173-0.0665h0.9402q0.10518 0 0.17173 0.0665 0.06869 0.0665 0.06869 0.17173zm-0.29837-0.0258v-2.8313h-0.82214v2.8313z" fill="#2e7469"/>
  <g fill="#f2f2f2">
   <path d="m93.68 116.69q0 0.10518-0.06869 0.17173-0.06654 0.0665-0.17173 0.0665h-0.9402q-0.10518 0-0.17173-0.0665-0.06654-0.0665-0.06654-0.17173v-2.8828q0-0.10519 0.06654-0.17173 0.06654-0.0665 0.17173-0.0665h0.9402q0.10518 0 0.17173 0.0665 0.06869 0.0665 0.06869 0.17173zm-0.29837-0.0258v-2.8313h-0.82214v2.8313z"/>
  </g>
  <path d="m92.819 116.57-1.28e-4 0.5083h0.29804l1.28e-4 -0.5083z" fill="#2e7469"/>
 </g>
</svg>
