<?xml version="1.0" encoding="UTF-8"?>
<svg width="5.913mm" height="8.5735mm" version="1.1" viewBox="0 0 5.913 8.5735" xmlns="http://www.w3.org/2000/svg">
 <g transform="translate(-91.05 -109.8)">
  <path d="m92.065 112.23h-0.21549v-1.1658h-0.58446v1.1658h-0.21549v-2.4262h0.21549v1.0666h0.58446v-1.0666h0.21549zm1.2085-0.17208q0 0.076-0.04961 0.12402-0.04806 0.0481-0.12402 0.0481h-0.66042q-0.07596 0-0.12402-0.0481-0.04806-0.0481-0.04806-0.12402v-2.2541h0.21549v2.2355h0.57516v-2.2355h0.21549zm1.4023 0.17208h-0.20309v-1.5363q0-0.0326 0.0217-0.19068l-0.39688 1.4991h-0.04341l-0.39688-1.4991q0.0217 0.15968 0.0217 0.19068v1.5363h-0.20308v-2.4262h0.19999l0.39377 1.5782q0.0031 0.0124 0.0062 0.0698 0-0.0233 0.0062-0.0698l0.39377-1.5782h0.19999zm1.1806 0h-0.21394l-0.08527-0.5395h-0.48214l-0.08527 0.5395h-0.20774v-6e-3l0.43253-2.4262h0.21239zm-0.32711-0.73019-0.21239-1.3146-0.21394 1.3146zm1.4333 0.73019h-0.14883l-0.64802-1.7844v1.7844h-0.20309v-2.4262h0.16123l0.63562 1.7534v-1.7534h0.20309z" fill="#f2f2f2" stroke-width=".26458" aria-label="HUMAN"/>
    <path d="m91.143 113.43h-0.09317v-1.049h0.09317zm1.2325 0h-0.06435l-0.28017-0.77148v0.77148h-0.08781v-1.049h0.06971l0.27481 0.75807v-0.75807h0.08781zm2.2764-0.96653h-0.16221v0.96653h-0.09317v-0.96653h-0.16355v-0.0824h0.41892zm1.1736 0.96653h-0.09317v-0.50404h-0.25269v0.50404h-0.09317v-1.049h0.09317v0.46114h0.25269v-0.46114h0.09317zm1.1374 0h-0.34452v-1.049h0.3405v0.0824h-0.24733v0.39144h0.22521v0.0838h-0.22521v0.40887h0.25135z" fill="#2e7469" stroke-width=".11439" aria-label="IN THE"/>
  <g transform="matrix(1.2363 0 0 1.2363 -21.511 -26.831)" stroke-width=".36635">
    <path d="m94.238 117.22q0 0.10518-0.06869 0.17173-0.06654 0.0665-0.17173 0.0665h-0.9402q-0.10518 0-0.17173-0.0665-0.06654-0.0665-0.06654-0.17173v-2.8828q0-0.10519 0.06654-0.17173 0.06654-0.0665 0.17173-0.0665h0.9402q0.10518 0 0.17173 0.0665 0.06869 0.0665 0.06869 0.17173zm-0.29837-0.0258v-2.8313h-0.82214v2.8313z" fill="#2e7469"/>
   <g fill="#f2f2f2">
    <path d="m92.123 116.93h-1.0733v-3.3594h0.29837v3.0954h0.77491z"/>
    <path d="m93.68 116.69q0 0.10518-0.06869 0.17173-0.06654 0.0665-0.17173 0.0665h-0.9402q-0.10518 0-0.17173-0.0665-0.06654-0.0665-0.06654-0.17173v-2.8828q0-0.10519 0.06654-0.17173 0.06654-0.0665 0.17173-0.0665h0.9402q0.10518 0 0.17173 0.0665 0.06869 0.0665 0.06869 0.17173zm-0.29837-0.0258v-2.8313h-0.82214v2.8313z"/>
    <path d="m95.833 115.36q0 0.10519-0.06869 0.17388-0.06654 0.0665-0.17173 0.0665h-0.79208v1.333h-0.29837v-3.3594h1.0905q0.10518 0 0.17173 0.0665 0.06869 0.0665 0.06869 0.17173zm-0.29837-0.0258v-1.4962h-0.73413v1.4962z"/>
   </g>
    <path d="m92.819 116.57-1.28e-4 0.5083h0.29804l1.28e-4 -0.5083z" fill="#2e7469"/>
  </g>
 </g>
</svg>
