<?xml version="1.0" encoding="UTF-8" standalone="no"?>
<!-- Created with Inkscape (http://www.inkscape.org/) -->

<svg
   width="60mm"
   height="40mm"
   viewBox="0 0 60 40.000001"
   version="1.1"
   id="svg1"
   xmlns="http://www.w3.org/2000/svg"
   xmlns:svg="http://www.w3.org/2000/svg">
  <defs
     id="defs1" />
  <g
     id="layer1"
     transform="translate(-81.414474,-108.74375)">
    <g
       id="g1"
       transform="matrix(0.95595515,0,0,0.95595515,4.9072331,8.4380779)">
      <path
         d="m 90.082035,122.38008 v -13.63633 h 3.474461 v 13.63633 z m -8.667473,0 v -13.63633 h 3.474461 v 13.63633 z m 2.876704,-5.36113 v -3.02614 h 6.388526 v 3.02614 z m 13.701714,5.69737 q -1.755911,0 -2.727265,-1.13947 -0.952675,-1.15816 -0.952675,-3.53051 v -5.97756 h 3.399741 v 6.07096 q 0,0.69116 0.410958,1.1208 0.410958,0.42964 1.102114,0.42964 0.691156,0 1.120797,-0.42964 0.42963,-0.42964 0.42963,-1.15816 v -6.0336 h 3.39975 v 10.3113 h -2.68991 v -4.33374 h 0.1868 q 0,1.5878 -0.41096,2.63387 -0.39228,1.02739 -1.17683,1.53175 -0.784557,0.50436 -1.942711,0.50436 z m 7.05166,-0.33624 v -10.3113 h 2.6899 v 4.44581 h -0.14944 q 0,-1.60647 0.39228,-2.65254 0.41096,-1.06476 1.19551,-1.58779 0.78456,-0.54172 1.92403,-0.54172 h 0.14944 q 1.15816,0 1.92403,0.54172 0.78456,0.52303 1.17684,1.58779 0.41095,1.04607 0.41095,2.65254 h -0.78455 q 0,-1.60647 0.39228,-2.65254 0.41095,-1.06476 1.19551,-1.58779 0.78456,-0.54172 1.92403,-0.54172 h 0.14944 q 1.15815,0 1.94271,0.54172 0.80323,0.52303 1.21419,1.58779 0.42964,1.04607 0.42964,2.65254 v 5.86549 h -3.39974 v -5.95889 q 0,-0.70983 -0.39228,-1.17683 -0.3736,-0.48568 -1.08343,-0.48568 -0.70984,0 -1.1208,0.48568 -0.39228,0.467 -0.39228,1.21419 v 5.92153 h -3.39974 v -5.95889 q 0,-0.70983 -0.39228,-1.17683 -0.37359,-0.48568 -1.08343,-0.48568 -0.70984,0 -1.12079,0.48568 -0.39228,0.467 -0.39228,1.21419 v 5.92153 z m 23.06035,0 v -3.02614 h -0.5604 v -3.23163 q 0,-0.70983 -0.33624,-1.04607 -0.31755,-0.35492 -1.06475,-0.35492 -0.35492,0 -1.04607,0.0187 -0.69116,0.0187 -1.45704,0.056 -0.76587,0.0374 -1.40099,0.0747 v -2.83934 q 0.44832,-0.0374 1.06476,-0.0747 0.61643,-0.0374 1.27023,-0.056 0.67248,-0.0187 1.23287,-0.0187 1.58779,0 2.68991,0.467 1.12079,0.46699 1.69987,1.40099 0.59776,0.93399 0.59776,2.37234 v 6.25777 z m -3.26898,0.26152 q -1.08344,0 -1.92403,-0.39228 -0.8406,-0.39228 -1.32628,-1.12079 -0.46699,-0.7472 -0.46699,-1.77459 0,-1.15816 0.61643,-1.86799 0.61644,-0.72852 1.69987,-1.06476 1.08344,-0.33623 2.48443,-0.33623 h 1.99875 v 1.75591 h -1.99875 q -0.69115,0 -1.06475,0.35491 -0.3736,0.33624 -0.3736,0.91532 0,0.5604 0.3736,0.91531 0.3736,0.33624 1.06475,0.33624 0.44832,0 0.78456,-0.14944 0.35492,-0.16812 0.57907,-0.56039 0.22416,-0.39228 0.26152,-1.08344 l 0.78456,0.7472 q -0.0934,1.06475 -0.52304,1.81195 -0.41096,0.72851 -1.15815,1.12079 -0.72852,0.39228 -1.81195,0.39228 z m 6.60335,-0.26152 v -10.3113 h 2.6899 v 4.42713 h -0.14943 q 0,-1.60647 0.41095,-2.65254 0.41096,-1.06476 1.2142,-1.58779 0.82191,-0.52304 1.98007,-0.52304 h 0.14944 q 1.75591,0 2.70858,1.17683 0.97136,1.15816 0.97136,3.56786 v 5.90285 h -3.39975 v -5.99625 q 0,-0.70983 -0.42963,-1.15815 -0.41096,-0.467 -1.13948,-0.467 -0.72851,0 -1.17683,0.467 -0.42964,0.44832 -0.42964,1.19551 v 5.95889 z"
         id="text1"
         style="font-size:18.6799px;font-family:Sora;-inkscape-font-specification:'Sora, @wght=800';font-variation-settings:'wght' 800;letter-spacing:-1.63449px;word-spacing:0px;fill:#1a1a1a;stroke-width:5.88344;stroke-linecap:round;stroke-linejoin:round"
         aria-label="Human" />
      <path
         d="m 84.806409,125.22682 q 0.741555,0 1.332052,0.35704 0.590498,0.34332 0.93381,1.01621 0.343313,0.67289 0.343313,1.63417 0,1.0986 -0.398243,2.05987 -0.398242,0.94754 -1.15353,1.52431 -0.741555,0.57676 -1.81269,0.57676 -0.906345,0 -1.496842,-0.41197 -0.576765,-0.41198 -0.865148,-1.11233 -0.27465,-0.70036 -0.27465,-1.55178 0,-1.11233 0.398243,-2.04614 0.411975,-0.93381 1.167262,-1.48311 0.76902,-0.56303 1.826423,-0.56303 z m -0.205988,0.5081 q -0.60423,-0.0137 -1.04367,0.41198 -0.43944,0.41197 -0.686625,1.12606 -0.233452,0.71409 -0.247185,1.59297 -0.01373,0.46691 0.05493,0.98874 0.06866,0.52184 0.233453,0.97501 0.178522,0.45317 0.480637,0.74155 0.315848,0.28839 0.782753,0.30212 0.5493,0.0137 0.93381,-0.28838 0.38451,-0.31585 0.617962,-0.81022 0.233453,-0.49437 0.343313,-1.0574 0.123592,-0.56304 0.137325,-1.05741 0.01373,-0.48063 -0.05493,-0.98874 -0.05493,-0.5081 -0.233453,-0.94754 -0.178522,-0.43944 -0.49437,-0.70036 -0.315847,-0.27465 -0.82395,-0.28838 z m 5.567107,6.66026 q -0.5493,0 -0.87888,-0.24718 -0.32958,-0.24719 -0.480637,-0.65916 -0.137325,-0.41198 -0.137325,-0.87888 0,-0.76902 0.10986,-1.55177 0.10986,-0.78276 0.21972,-1.44192 0.10986,-0.67289 0.10986,-1.0574 0,-0.26092 -0.06866,-0.45317 -0.05493,-0.19226 -0.302115,-0.19226 -0.21972,0 -0.49437,0.30212 -0.260917,0.30211 -0.466905,1.02994 l -0.38451,-0.0824 q 0.0412,-0.24718 0.16479,-0.56303 0.123593,-0.32958 0.32958,-0.64543 0.21972,-0.31585 0.521835,-0.52183 0.315848,-0.20599 0.727823,-0.20599 0.5493,0 0.82395,0.34331 0.288382,0.34331 0.288382,0.98874 0,0.38451 -0.06866,0.94754 -0.06866,0.56304 -0.16479,1.181 -0.08239,0.60423 -0.151058,1.18099 -0.06866,0.57677 -0.06866,1.01621 0,0.15106 0.0412,0.35704 0.05493,0.20599 0.192255,0.35705 0.151058,0.15106 0.411975,0.15106 0.38451,0 0.755288,-0.35705 0.370777,-0.35704 0.700357,-0.96127 0.32958,-0.60423 0.590498,-1.33206 0.260917,-0.74155 0.398242,-1.51057 0.151058,-0.78275 0.151058,-1.48311 0,-0.20599 -0.01373,-0.37078 0,-0.17852 -0.01373,-0.35704 h 1.15353 q 0.01373,0.0961 0.01373,0.17852 0,0.0687 0,0.17852 0,0.23345 -0.02747,0.56303 -0.02746,0.31585 -0.08239,0.85142 -0.05493,0.52183 -0.16479,1.38698 -0.09613,0.79649 -0.151057,1.24966 -0.0412,0.45317 -0.06866,0.68662 -0.02747,0.21972 -0.0412,0.34332 0,0.12359 0,0.27465 0,0.24718 0.06866,0.4257 0.08239,0.17853 0.302115,0.17853 0.233453,0 0.508103,-0.28839 0.288382,-0.30211 0.49437,-1.02993 l 0.38451,0.0824 q -0.0412,0.24719 -0.178523,0.57677 -0.123592,0.31584 -0.343312,0.63169 -0.21972,0.31585 -0.535568,0.52184 -0.315847,0.20598 -0.727822,0.20598 -0.5493,0 -0.810218,-0.34331 -0.247185,-0.34331 -0.247185,-0.89261 0,-0.39824 0.06866,-0.86515 0.08239,-0.4669 0.178522,-0.97501 h -0.0412 q -0.466905,1.24966 -0.892613,1.92255 -0.425707,0.65916 -0.837682,0.90635 -0.411975,0.24718 -0.865148,0.24718 z m 7.544594,-8.95359 -0.247185,1.93629 h 2.183467 l -0.0412,0.52183 -2.1972,0.0275 q -0.05493,0.57676 -0.137325,1.19472 -0.06866,0.60423 -0.123593,1.20846 -0.05493,0.60423 -0.09613,1.16727 -0.0412,0.5493 -0.0412,1.00247 0,0.26092 0.02747,0.5493 0.0412,0.27465 0.178523,0.4669 0.137325,0.17853 0.43944,0.17853 0.137325,0 0.32958,-0.0549 0.205987,-0.0549 0.453172,-0.26092 0.247185,-0.20599 0.508103,-0.64543 l 0.357045,0.23345 q -0.398243,0.70036 -0.865148,1.07114 -0.453172,0.35704 -1.112332,0.35704 -0.535568,0 -0.851415,-0.21972 -0.302115,-0.23345 -0.43944,-0.60423 -0.137325,-0.37077 -0.137325,-0.79648 0,-0.52184 0.0412,-1.26339 0.0412,-0.75529 0.123593,-1.66163 0.0824,-0.92008 0.192255,-1.90882 l -1.222193,0.0137 0.0412,-0.57676 q 0.947542,0 1.400715,-0.50811 0.453172,-0.5081 0.71409,-1.42818 z"
         id="text9"
         style="font-style:italic;font-size:13.7325px;font-family:Lora;-inkscape-font-specification:'Lora, Italic';letter-spacing:-0.722377px;word-spacing:0px;fill:#2e7469;stroke-width:4.32519;stroke-linecap:round;stroke-linejoin:round"
         aria-label="out" />
      <path
         d="m 83.479502,134.48526 q 0.451462,0 0.81096,0.21737 0.359497,0.20901 0.568507,0.61867 0.209011,0.40966 0.209011,0.99489 0,0.66883 -0.242452,1.25406 -0.242452,0.57687 -0.702275,0.92801 -0.451462,0.35114 -1.103574,0.35114 -0.551787,0 -0.911284,-0.25082 -0.351138,-0.25081 -0.526706,-0.67719 -0.167208,-0.42638 -0.167208,-0.94473 0,-0.67719 0.242452,-1.2457 0.250812,-0.56851 0.710634,-0.90292 0.468183,-0.34278 1.111935,-0.34278 z m -0.125406,0.30934 q -0.367858,-0.008 -0.635391,0.25081 -0.267534,0.25081 -0.418021,0.68555 -0.142127,0.43474 -0.150487,0.96981 -0.0084,0.28425 0.03344,0.60195 0.0418,0.3177 0.142127,0.59359 0.108686,0.27589 0.292615,0.45146 0.192289,0.17557 0.476543,0.18393 0.334416,0.008 0.568508,-0.17557 0.234091,-0.19229 0.376218,-0.49326 0.142127,-0.30098 0.209011,-0.64375 0.07524,-0.34278 0.0836,-0.64376 0.0084,-0.29261 -0.03344,-0.60195 -0.03344,-0.30933 -0.142127,-0.57686 -0.108685,-0.26754 -0.300975,-0.42638 -0.192289,-0.16721 -0.501624,-0.17557 z m 4.292205,-2.39108 q 0.309335,-0.008 0.476543,0.10868 0.167208,0.10869 0.167208,0.32606 0,0.0585 -0.03344,0.14213 -0.02508,0.0836 -0.100325,0.14212 -0.07524,0.0502 -0.20065,0.0502 -0.158848,0 -0.250812,-0.11705 -0.09197,-0.11704 -0.08361,-0.30097 -0.02508,-0.0167 -0.100324,-0.0251 -0.07524,-0.0167 -0.142127,-0.008 -0.20065,0.0167 -0.334417,0.1672 -0.125406,0.14213 -0.20901,0.39294 -0.0836,0.24245 -0.133767,0.57687 -0.05016,0.32606 -0.0836,0.719 h 1.187178 l -0.02508,0.32605 -1.187178,0.0167 q -0.0084,0.21737 -0.02508,0.4431 -0.0084,0.22574 -0.02508,0.46819 -0.0084,0.23409 -0.02508,0.47654 -0.01672,0.23409 -0.0418,0.47654 -0.05852,0.61031 -0.108685,1.22062 -0.05016,0.60195 -0.150487,1.14538 -0.09197,0.54343 -0.275894,0.96145 -0.183929,0.42638 -0.509985,0.66883 -0.317695,0.24245 -0.81932,0.24245 -0.317696,0 -0.484904,-0.11704 -0.167208,-0.10869 -0.167208,-0.3177 0,-0.0669 0.03344,-0.15049 0.03344,-0.0752 0.108685,-0.14212 0.07524,-0.0585 0.20065,-0.0502 0.150487,0.008 0.242452,0.10869 0.0836,0.10868 0.0836,0.27589 0.09196,0.0669 0.242452,0.0669 0.292614,0 0.443101,-0.30934 0.158848,-0.30933 0.234092,-0.86112 0.07524,-0.54343 0.117046,-1.26242 0.05016,-0.72736 0.125406,-1.55504 0.01672,-0.22573 0.03344,-0.45146 0.01672,-0.22573 0.03344,-0.45146 0.01672,-0.22573 0.03344,-0.44311 0.02508,-0.22573 0.05016,-0.43474 l -0.735716,0.008 0.0418,-0.35949 h 0.735716 q 0.09197,-0.61031 0.267533,-1.09522 0.175569,-0.4849 0.509985,-0.77752 0.334417,-0.29261 0.886204,-0.30097 z m 3.208678,0.99489 -0.150487,1.17882 h 1.329305 l -0.02508,0.31769 -1.337666,0.0167 q -0.03344,0.35114 -0.0836,0.72736 -0.0418,0.36786 -0.07524,0.73571 -0.03344,0.36786 -0.05852,0.71064 -0.02508,0.33442 -0.02508,0.61031 0,0.15885 0.01672,0.33442 0.02508,0.1672 0.108686,0.28425 0.0836,0.10868 0.267533,0.10868 0.0836,0 0.20065,-0.0334 0.125406,-0.0334 0.275893,-0.15884 0.150488,-0.12541 0.309335,-0.39294 l 0.217371,0.14212 q -0.242452,0.42638 -0.526706,0.65211 -0.275893,0.21738 -0.677193,0.21738 -0.326056,0 -0.518345,-0.13377 -0.183929,-0.14213 -0.267534,-0.36786 -0.0836,-0.22573 -0.0836,-0.4849 0,-0.3177 0.02508,-0.76916 0.02508,-0.45982 0.07524,-1.01161 0.05016,-0.56015 0.117046,-1.1621 l -0.744076,0.008 0.02508,-0.35113 q 0.576868,0 0.852762,-0.30934 0.275893,-0.30933 0.434741,-0.86948 z m 4.400894,5.45099 q -0.392939,0 -0.535066,-0.20901 -0.142127,-0.20901 -0.142127,-0.59359 0,-0.2341 0.03344,-0.55179 0.0418,-0.32606 0.0836,-0.68555 0.05016,-0.3595 0.0836,-0.72736 0.0418,-0.36786 0.0418,-0.69391 0,-0.10033 -0.03344,-0.21737 -0.03344,-0.11705 -0.117046,-0.20065 -0.0836,-0.092 -0.250812,-0.092 -0.225732,0 -0.451463,0.20901 -0.225731,0.20065 -0.434741,0.55179 -0.20065,0.35114 -0.367858,0.8026 -0.158848,0.4431 -0.250812,0.928 -0.09197,0.47655 -0.09197,0.94473 0,0.12541 0,0.23409 0.0084,0.10033 0.01672,0.20901 h -0.685554 q -0.0084,-0.0585 -0.0084,-0.10032 0,-0.0502 0,-0.11705 0,-0.22573 0.02508,-0.69391 0.02508,-0.46819 0.06688,-1.06178 0.0418,-0.60195 0.09196,-1.22898 0.05852,-0.62703 0.117046,-1.18717 0.05852,-0.56851 0.117046,-0.95309 0.03344,-0.21737 0.0418,-0.27589 0.01672,-0.0585 0.03344,-0.16721 l -0.585228,0.0334 0.03344,-0.33442 q 0.367858,0 0.568508,-0.0334 0.20901,-0.0334 0.317696,-0.0836 0.108685,-0.0502 0.175568,-0.10869 h 0.242452 q -0.03344,0.20901 -0.07524,0.46818 -0.0418,0.25918 -0.0836,0.50999 -0.0418,0.25081 -0.06688,0.4431 -0.02508,0.20901 -0.06688,0.54343 -0.03344,0.32605 -0.07524,0.69391 -0.03344,0.3595 -0.06688,0.69392 -0.02508,0.33441 -0.0418,0.55178 h 0.02508 q 0.284254,-0.76079 0.560147,-1.16209 0.275894,-0.4013 0.543427,-0.55179 0.275894,-0.15049 0.543427,-0.15049 0.501624,0 0.710635,0.32606 0.20901,0.31769 0.20901,0.76079 0,0.45983 -0.05852,0.94473 -0.05852,0.47654 -0.117046,0.8862 -0.05852,0.4013 -0.05852,0.64376 0,0.15048 0.03344,0.26753 0.0418,0.11705 0.192289,0.11705 0.142127,0 0.309336,-0.17557 0.175568,-0.18393 0.300974,-0.63539 l 0.209011,0.0585 q -0.02508,0.14213 -0.100325,0.34277 -0.07524,0.20065 -0.209011,0.39294 -0.125406,0.18393 -0.317695,0.30934 -0.183929,0.12541 -0.434742,0.12541 z m 3.088311,-4.36414 q 0.300975,0 0.568508,0.092 0.267533,0.092 0.434741,0.30097 0.167208,0.20901 0.167208,0.56851 0,0.34278 -0.234091,0.59359 -0.234092,0.25081 -0.61031,0.41802 -0.376218,0.15885 -0.802599,0.25917 -0.426381,0.10033 -0.819321,0.14213 0,0.51834 0.100325,0.86948 0.108686,0.35114 0.317696,0.52671 0.20901,0.17557 0.535066,0.17557 0.242452,0 0.484904,-0.10869 0.250812,-0.10869 0.476543,-0.32606 0.225731,-0.22573 0.40966,-0.57686 l 0.275894,0.15884 q -0.234092,0.43474 -0.501625,0.719 -0.267533,0.28425 -0.585228,0.41802 -0.317696,0.13377 -0.702275,0.13377 -0.794239,0 -1.170457,-0.49327 -0.376219,-0.50162 -0.376219,-1.31258 0,-0.48491 0.125407,-0.94473 0.125406,-0.45982 0.376218,-0.81932 0.250812,-0.36786 0.635391,-0.57687 0.384579,-0.21737 0.894564,-0.21737 z m -0.117046,0.28426 q -0.384579,0 -0.635391,0.25917 -0.242452,0.25917 -0.376218,0.66883 -0.125406,0.40966 -0.158848,0.86112 0.443102,-0.0585 0.844401,-0.20901 0.4013,-0.15048 0.660473,-0.38458 0.259172,-0.24245 0.259172,-0.56014 0,-0.26754 -0.150487,-0.45147 -0.142127,-0.18392 -0.443102,-0.18392 z"
         id="text10"
         style="font-style:italic;font-size:8.36041px;font-family:Lora;-inkscape-font-specification:'Lora, Italic';letter-spacing:-0.439786px;word-spacing:0px;fill:#2e7469;stroke-width:2.63321;stroke-linecap:round;stroke-linejoin:round"
         aria-label="of the" />
      <path
         id="path1"
         d="m 100.41999,123.44183 v 2.76936 h 1.30062 v 12.54617 h 3.81861 v -15.31553 z m 11.98939,3.3148 c -0.9791,0 -1.86722,0.15393 -2.66449,0.46165 -0.79726,0.30771 -1.47577,0.73404 -2.03526,1.27953 -0.55948,0.5455 -0.99291,1.18198 -1.30062,1.90931 -0.29374,0.72733 -0.44111,1.51065 -0.44111,2.34987 v 0.50328 c 0,0.81125 0.14028,1.57383 0.42003,2.28717 0.29372,0.71334 0.71296,1.34272 1.25845,1.88822 0.55949,0.54549 1.238,0.97183 2.03526,1.27954 0.79726,0.30772 1.70668,0.46165 2.72774,0.46165 1.02105,0 1.92993,-0.15393 2.72719,-0.46165 0.77728,-0.3 1.43512,-0.71299 1.9731,-1.239 0.55127,0.52601 1.21528,0.939 1.99255,1.239 0.79727,0.30772 1.70668,0.46165 2.72774,0.46165 1.02105,0 1.92993,-0.15393 2.72719,-0.46165 0.79726,-0.30771 1.46868,-0.73405 2.01418,-1.27954 0.55948,-0.5455 0.97926,-1.17488 1.259,-1.88822 0.29373,-0.71334 0.44056,-1.47592 0.44056,-2.28717 v -0.50328 c 0,-0.83922 -0.15393,-1.62254 -0.46165,-2.34987 -0.29372,-0.72733 -0.72005,-1.36381 -1.27953,-1.90931 -0.55949,-0.54549 -1.238,-0.97182 -2.03526,-1.27953 -0.78328,-0.30772 -1.67141,-0.46165 -2.66449,-0.46165 -0.9791,0 -1.86722,0.15393 -2.66449,0.46165 -0.79726,0.30771 -1.47578,0.73404 -2.03526,1.27953 -0.004,0.003 -0.007,0.007 -0.0108,0.0103 -0.004,-0.003 -0.007,-0.007 -0.0103,-0.0103 -0.55948,-0.54549 -1.238,-0.97182 -2.03526,-1.27953 -0.78328,-0.30772 -1.67141,-0.46165 -2.66449,-0.46165 z m 23.75984,0.0838 c -0.92315,0 -1.74141,0.20962 -2.45475,0.62923 -0.71334,0.40563 -1.27995,1.00718 -1.69956,1.80444 -0.13081,0.25712 -0.24271,0.53179 -0.3357,0.82383 v -2.9218 h -3.02126 v 15.77719 h 3.81861 v -5.50521 c 0.36337,0.49271 0.81099,0.88006 1.34278,1.16224 0.68536,0.34968 1.47579,0.5249 2.37096,0.5249 0.83923,0 1.58051,-0.14684 2.22392,-0.44057 0.65739,-0.29373 1.20981,-0.70641 1.6574,-1.23792 0.44759,-0.54549 0.7833,-1.17487 1.00709,-1.88822 0.22379,-0.72733 0.3357,-1.51775 0.3357,-2.37096 v -0.50327 c 0,-0.85321 -0.1261,-1.63654 -0.37787,-2.34988 -0.23778,-0.71334 -0.58713,-1.32908 -1.04871,-1.8466 -0.46157,-0.5315 -1.01453,-0.93709 -1.65794,-1.21683 -0.6434,-0.29373 -1.3634,-0.44057 -2.16067,-0.44057 z m -23.75984,3.10506 c 0.55948,0 1.03493,0.13318 1.42657,0.39894 0.39164,0.26576 0.68532,0.62931 0.88114,1.09088 0.2098,0.44759 0.31461,0.97217 0.31461,1.57361 0,0.57348 -0.0977,1.09096 -0.29353,1.55253 -0.19581,0.44758 -0.4895,0.79694 -0.88114,1.04871 -0.37765,0.25177 -0.8602,0.37786 -1.44765,0.37786 -0.57348,0 -1.05603,-0.12609 -1.44766,-0.37786 -0.39164,-0.25177 -0.68531,-0.60113 -0.88113,-1.04871 -0.19582,-0.46157 -0.29408,-0.97905 -0.29408,-1.55253 0,-0.60144 0.0983,-1.12602 0.29408,-1.57361 0.2098,-0.46157 0.51003,-0.82512 0.90167,-1.09088 0.39164,-0.26576 0.86763,-0.39894 1.42712,-0.39894 z m 9.42058,0 c 0.55948,0 1.03493,0.13318 1.42657,0.39894 0.39164,0.26576 0.68532,0.62931 0.88114,1.09088 0.2098,0.44759 0.31461,0.97217 0.31461,1.57361 0,0.57348 -0.0977,1.09096 -0.29353,1.55253 -0.19582,0.44758 -0.4895,0.79694 -0.88114,1.04871 -0.37764,0.25177 -0.86019,0.37786 -1.44765,0.37786 -0.57347,0 -1.05602,-0.12609 -1.44766,-0.37786 -0.39164,-0.25177 -0.68531,-0.60113 -0.88113,-1.04871 -0.19582,-0.46157 -0.29408,-0.97905 -0.29408,-1.55253 0,-0.60144 0.0983,-1.12602 0.29408,-1.57361 0.2098,-0.46157 0.51057,-0.82512 0.90221,-1.09088 0.39164,-0.26576 0.8671,-0.39894 1.42658,-0.39894 z m 13.20622,0.0422 c 0.51752,0 0.96513,0.12554 1.34278,0.37732 0.37765,0.23778 0.67133,0.58058 0.88114,1.02817 0.22379,0.43359 0.33569,0.95108 0.33569,1.55253 0,0.58745 -0.1119,1.11203 -0.33569,1.57361 -0.20981,0.46157 -0.51059,0.82511 -0.90222,1.09087 -0.37765,0.25177 -0.81817,0.37786 -1.3217,0.37786 -0.41962,0 -0.83229,-0.0977 -1.23792,-0.29353 -0.40562,-0.2098 -0.74133,-0.50402 -1.00709,-0.88167 -0.26576,-0.39164 -0.3984,-0.85999 -0.3984,-1.40549 v -0.71302 c 0,-0.57347 0.12555,-1.06311 0.37732,-1.46874 0.25177,-0.40563 0.57383,-0.71349 0.96547,-0.9233 0.40562,-0.20981 0.83904,-0.31461 1.30062,-0.31461 z"
         style="font-size:20.9806px;font-family:Sora;-inkscape-font-specification:'Sora, @wght=800';font-variation-settings:'wght' 800;letter-spacing:-1.71084px;word-spacing:0px;fill:#1a1a1a;stroke-width:6.6081;stroke-linecap:round;stroke-linejoin:round" />
    </g>
  </g>
</svg>
